# xmcd
#
# Track frame offsets:
#	150
#	13055
#	27782
#	42932
#	55207
#	72427
#	89355
#	104740
#	125560
#	136207
#
# Disc length: 1995 seconds
#
# Revision: 4
# Processed by: cddbd v1.5.2PL0 Copyright (c) Steve Scherf et al.
# Submitted via: EZCDAudioConverter 6.0.8.1
#
DISCID=8b07c90a
DTITLE=Ricochet - Blink Of An Eye
DYEAR=1997
DGENRE=Country
TTITLE0=Blink Of An Eye
TTITLE1=He Left A Lot To Be Desired
TTITLE2=What A Woman Can Do
TTITLE3=Can't Be Good For Your Heart
TTITLE4=The Girl Formerly Known As Mine
TTITLE5=Don't Forget To Feed The Jukebox (While I'm Gone)
TTITLE6=The Last Love In This Town
TTITLE7=Connected At The Heart
TTITLE8=You Can't Go By That
TTITLE9=You Still Got It
EXTD=
EXTT0=
EXTT1=
EXTT2=
EXTT3=
EXTT4=
EXTT5=
EXTT6=
EXTT7=
EXTT8=
EXTT9=
PLAYORDER=
